<svg version="1.1" xmlns="http://www.w3.org/2000/svg" width="349" height="349">
<path d="M0 0 C0.9120559 -0.00583219 1.82411179 -0.01166439 2.76380575 -0.01767331 C4.26888832 -0.01200433 4.26888832 -0.01200433 5.8043766 -0.00622082 C6.86921921 -0.01004636 7.93406183 -0.01387191 9.03117239 -0.01781338 C12.61713249 -0.02817334 16.20293336 -0.02414552 19.78890419 -0.02018261 C22.3526315 -0.02452744 24.9163575 -0.02970982 27.48008156 -0.03567028 C33.73185063 -0.04770059 39.98356051 -0.05020861 46.23533891 -0.04787002 C51.3162749 -0.04608864 56.39719783 -0.04783263 61.47813225 -0.05209446 C62.20065145 -0.05268965 62.92317065 -0.05328484 63.66758437 -0.05389806 C65.13528811 -0.05510979 66.60299185 -0.05632392 68.07069559 -0.05754044 C81.84306111 -0.0684234 95.61540216 -0.06625003 109.38776906 -0.06015559 C121.9907247 -0.05498687 134.59360303 -0.06623934 147.19654338 -0.08525381 C160.13192178 -0.10462046 173.06726358 -0.11289021 186.00265658 -0.10913056 C193.26699658 -0.10721659 200.53127079 -0.10972504 207.79559898 -0.1238451 C214.62620342 -0.13698748 221.45665044 -0.13451479 228.28725433 -0.12143421 C230.79752148 -0.11906065 233.30779941 -0.12183082 235.8180542 -0.13005733 C239.23856304 -0.14046048 242.65854533 -0.13247551 246.07903481 -0.11974621 C247.07796174 -0.12712049 248.07688868 -0.13449478 249.10608613 -0.14209253 C254.03984913 -0.10333041 257.61538589 -0.06592199 261.56868935 3.25447559 C262.73628832 5.58967355 262.71959368 7.02186255 262.76156044 9.62483692 C262.78565483 10.98183453 262.78565483 10.98183453 262.81023598 12.36624622 C262.85467796 16.5054956 262.89575038 20.64458447 262.918787 24.78401661 C262.93534865 26.96739325 262.96264123 29.15071563 263.00081825 31.3338213 C263.05557379 34.4808361 263.07745924 37.62657989 263.09212685 40.77400684 C263.11479622 41.74812016 263.13746559 42.72223347 263.16082191 43.72586536 C263.14749779 47.99944913 262.92333034 50.61933011 260.81453896 54.39607716 C255.70637978 57.32073362 250.87848241 56.70436526 245.1116581 56.46931934 C242.61234685 56.43218258 240.11299404 56.39776201 237.61361122 56.36580372 C233.68149399 56.28941616 229.75350457 56.19187576 225.82332802 56.04573536 C212.22545731 54.82817549 212.22545731 54.82817549 199.65429115 58.56429005 C196.3508614 62.27851584 195.04201912 66.58283962 193.56868935 71.25447559 C186.33768019 83.22122308 175.1654391 93.65094152 163.56868935 101.25447559 C164.17146202 101.26256245 164.7742347 101.2706493 165.39527321 101.27898121 C171.67342534 101.36509113 177.95126408 101.46459775 184.22908974 101.57185841 C186.57148408 101.61012276 188.91393668 101.64498006 191.25643349 101.67635059 C194.62505334 101.72205584 197.99327308 101.7800422 201.3616581 101.84041309 C202.40766685 101.8519643 203.45367561 101.86351551 204.53138161 101.87541676 C205.5120208 101.89528645 206.49265999 101.91515614 207.50301552 101.93562794 C208.3623922 101.94895161 209.22176888 101.96227528 210.10718727 101.97600269 C214.10626909 102.42842397 216.80771351 103.36667045 219.44368935 106.44197559 C220.94351459 110.19153869 220.62459417 112.38282456 219.56868935 116.25447559 C218.06285286 118.43757343 218.06285286 118.43757343 215.56868935 120.25447559 C212.50069246 120.64718705 209.79240015 120.79478537 206.72457314 120.76241016 C205.82151263 120.76865013 204.91845212 120.77489009 203.98802614 120.78131914 C200.95540521 120.7973018 197.92358218 120.78462417 194.89095497 120.77205372 C192.71953804 120.77747248 190.54812478 120.78459376 188.37671852 120.79329395 C182.47389115 120.81155931 176.57134281 120.8044464 170.66851044 120.79177761 C164.4977371 120.78166663 158.32698801 120.79103799 152.15621376 120.79732227 C141.79252256 120.80460422 131.42894529 120.79499657 121.06527138 120.77595997 C109.07500777 120.75419021 97.08513613 120.76124117 85.09487009 120.78326559 C74.80943802 120.80140395 64.52408796 120.80398555 54.23864508 120.79351091 C48.0916005 120.78726741 41.94468389 120.78646396 35.79764748 120.79965687 C30.01919031 120.81119192 24.24108466 120.8032323 18.46266556 120.78007984 C16.33899775 120.77478023 14.21530047 120.7763278 12.09164429 120.7851305 C9.1982955 120.79602 6.30608153 120.78240211 3.41280556 120.76241016 C2.56728583 120.77133305 1.7217661 120.78025594 0.85062456 120.78944921 C-2.78038231 120.74059892 -4.96678535 120.59814632 -7.92938042 118.40632343 C-9.87842625 115.61388343 -10.29273397 113.64960437 -10.43131065 110.25447559 C-9.50548409 107.12090876 -8.7466237 105.56978864 -6.43131065 103.25447559 C-3.70515623 102.36066214 -1.16213457 102.11243688 1.69466591 102.04915333 C2.49519386 102.02920811 3.29572182 102.00926289 4.12050819 101.98871326 C5.40196724 101.96364452 5.40196724 101.96364452 6.70931435 101.93806934 C7.59149635 101.91728825 8.47367836 101.89650715 9.38259315 101.87509632 C12.19454765 101.80982692 15.0065938 101.75082112 17.81868935 101.69197559 C19.72755291 101.64876886 21.63640727 101.60515388 23.54525185 101.56111622 C28.21963761 101.45416872 32.89411536 101.35283774 37.56868935 101.25447559 C36.9229496 100.74876026 36.27720985 100.24304493 35.61190224 99.72200489 C13.87372881 82.54310345 -0.25362297 62.09786044 -7.43131065 35.25447559 C-7.66592003 34.39853809 -7.9005294 33.54260059 -8.14224815 32.66072559 C-9.44019191 27.1679781 -9.83422816 21.55862736 -10.24381065 15.94197559 C-10.30923058 15.16418751 -10.3746505 14.38639942 -10.44205284 13.585042 C-10.71884696 8.91691934 -10.51813805 6.03672618 -7.43131065 2.25447559 C-4.28821929 0.15908135 -3.57833491 0.00393104 0 0 Z M7.56868935 18.25447559 C9.63761297 30.69226279 9.63761297 30.69226279 13.38118935 42.06697559 C13.76802895 42.98277393 13.76802895 42.98277393 14.16268349 43.91707325 C18.19886376 53.27317186 23.01851498 61.45864841 29.56868935 69.25447559 C30.1513456 69.98279591 30.73400185 70.71111622 31.33431435 71.46150684 C45.6745875 88.6638093 67.35036929 99.89333637 89.56868935 102.25447559 C118.7072388 103.93225688 141.68849094 97.09766251 163.81868935 77.75447559 C179.64082989 63.10712274 189.7214333 44.42633184 193.56868935 23.25447559 C193.56868935 21.60447559 193.56868935 19.95447559 193.56868935 18.25447559 C132.18868935 18.25447559 70.80868935 18.25447559 7.56868935 18.25447559 Z M211.56868935 18.25447559 C211.56868935 25.18447559 211.56868935 32.11447559 211.56868935 39.25447559 C222.45868935 39.25447559 233.34868935 39.25447559 244.56868935 39.25447559 C244.56868935 32.32447559 244.56868935 25.39447559 244.56868935 18.25447559 C233.67868935 18.25447559 222.78868935 18.25447559 211.56868935 18.25447559 Z " fill="#1B63F1" transform="translate(57.43131065368652,142.7455244064331)"/>
<path d="M0 0 C3.9375 0.5625 3.9375 0.5625 6.375 2.4375 C10.1540079 7.57695074 9.16116366 13.54735181 9.17773438 19.68334961 C9.1874169 21.85634983 9.21842826 24.02839463 9.25 26.20117188 C9.25653269 27.58853606 9.26178212 28.975907 9.265625 30.36328125 C9.27964355 32.25300659 9.27964355 32.25300659 9.29394531 34.1809082 C8.91154807 37.80870565 8.12745107 39.67910886 5.9375 42.5625 C2.77953893 44.14148053 -0.66920636 44.38178171 -4.0625 43.5625 C-7.46490695 40.85786667 -8.91283294 39.37623698 -9.70947266 35.04492188 C-9.74219718 33.7074194 -9.74646367 32.36900473 -9.7265625 31.03125 C-9.73134613 30.31771362 -9.73612976 29.60417725 -9.74105835 28.86901855 C-9.7444481 27.36626978 -9.73531008 25.86344634 -9.71435547 24.36083984 C-9.68756783 22.06830525 -9.71412531 19.78066466 -9.74609375 17.48828125 C-9.74278948 16.02342676 -9.73638286 14.5585753 -9.7265625 13.09375 C-9.73668365 12.41340698 -9.74680481 11.73306396 -9.75723267 11.03210449 C-9.6631205 7.185593 -9.12805759 5.64222754 -6.65209961 2.63110352 C-4.10284515 0.59472819 -3.18007203 -0.10747758 0 0 Z " fill="#1C64F2" transform="translate(116.0625,74.4375)"/>
<path d="M0 0 C3.9375 0.5625 3.9375 0.5625 6.375 2.375 C10.14070402 7.64698563 9.16030482 14.12807257 9.17773438 20.33154297 C9.18743395 22.42325706 9.21846762 24.51398537 9.25 26.60546875 C9.2565314 27.94270253 9.26178133 29.2799433 9.265625 30.6171875 C9.27964355 32.43452393 9.27964355 32.43452393 9.29394531 34.28857422 C8.90599637 37.85185873 8.08021335 39.72011185 5.9375 42.5625 C2.77953893 44.14148053 -0.66920636 44.38178171 -4.0625 43.5625 C-7.46490695 40.85786667 -8.91283294 39.37623698 -9.70947266 35.04492188 C-9.74219718 33.7074194 -9.74646367 32.36900473 -9.7265625 31.03125 C-9.73134613 30.31771362 -9.73612976 29.60417725 -9.74105835 28.86901855 C-9.7444481 27.36626978 -9.73531008 25.86344634 -9.71435547 24.36083984 C-9.68756783 22.06830525 -9.71412531 19.78066466 -9.74609375 17.48828125 C-9.74278948 16.02342676 -9.73638286 14.5585753 -9.7265625 13.09375 C-9.73668365 12.41340698 -9.74680481 11.73306396 -9.75723267 11.03210449 C-9.6631205 7.185593 -9.12805759 5.64222754 -6.65209961 2.63110352 C-4.10284515 0.59472819 -3.18007203 -0.10747758 0 0 Z " fill="#1C64F2" transform="translate(201.0625,74.4375)"/>
<path d="M0 0 C3.42503015 0.95348825 4.90404525 2.87873912 7.1328125 5.59375 C7.63398286 8.3186038 7.83726461 10.41001441 7.796875 13.125 C7.80165863 13.83853638 7.80644226 14.55207275 7.81137085 15.28723145 C7.8147606 16.78998022 7.80562258 18.29280366 7.78466797 19.79541016 C7.75788033 22.08794475 7.78443781 24.37558534 7.81640625 26.66796875 C7.81310198 28.13282324 7.80669536 29.5976747 7.796875 31.0625 C7.80699615 31.74284302 7.81711731 32.42318604 7.82754517 33.12414551 C7.733433 36.970657 7.19837009 38.51402246 4.72241211 41.52514648 C2.17315765 43.56152181 1.25038453 44.26372758 -1.9296875 44.15625 C-5.8671875 43.59375 -5.8671875 43.59375 -8.3046875 41.78125 C-12.25655918 36.24862965 -11.05143155 29.22414577 -11.0546875 22.71875 C-11.06693359 21.43871094 -11.07917969 20.15867187 -11.09179688 18.83984375 C-11.09373047 17.60621094 -11.09566406 16.37257813 -11.09765625 15.1015625 C-11.10381958 13.40990967 -11.10381958 13.40990967 -11.11010742 11.68408203 C-10.80906107 7.8542883 -9.75600341 5.0257312 -7.7421875 1.78125 C-5.25810468 0.20799755 -2.89234541 0.13611037 0 0 Z " fill="#1C63F2" transform="translate(159.8671875,74.40625)"/>
</svg>
